# xmcd CD database file
#
# Track frame offsets:
#	150
#	17371
#	34694
#	50950
#	70195
#	87644
#	103012
#	118446
#	136075
#	151819
#
# Disc length: 2300 seconds
#
# Revision: 2
# Processed by: cddbd v1.4PL0 Copyright (c) Steve Scherf et al.
# Submitted via: CDex 1.40Release
#
DISCID=8508fa0a
DTITLE=Arik Einstain - Floating in space
DYEAR=2002
DGENRE=Blues
TTITLE0=Floating in space
TTITLE1=Being close
TTITLE2=My dark girl
TTITLE3=Sodom and Amora
TTITLE4=And you back to shedding of leaves
TTITLE5=That is me
TTITLE6=Paleness
TTITLE7=Miss Banana
TTITLE8=Wet sun
TTITLE9=So good 
EXTD=YEAR: 2002 ID3G: 0
EXTT0=
EXTT1=
EXTT2=
EXTT3=
EXTT4=
EXTT5=
EXTT6=
EXTT7=
EXTT8=
EXTT9=
PLAYORDER=
